<svg width="23" height="23" viewBox="0 0 23 23" fill="none" xmlns="http://www.w3.org/2000/svg">
<path d="M19.5345 15.033C19.5345 12.595 17.5488 10.6094 15.1108 10.6094C12.6728 10.6094 10.6872 12.595 10.6872 15.033C10.6872 16.3747 11.2852 17.5784 12.2282 18.3834C9.22284 18.2377 6.49351 16.6584 4.87584 14.09C4.82241 14.0045 4.75253 13.9304 4.67024 13.872C4.58796 13.8137 4.49491 13.7723 4.39649 13.7502C4.29808 13.7281 4.19625 13.7257 4.09692 13.7433C3.99759 13.7608 3.90273 13.7979 3.81784 13.8524C3.45751 14.0824 3.35017 14.55 3.58017 14.9104C4.55097 16.4482 5.89533 17.7152 7.48794 18.5933C9.08054 19.4714 10.8695 19.9319 12.6882 19.932C14.0835 19.932 15.4405 19.6714 16.7208 19.15C16.7285 19.15 16.7285 19.15 16.7285 19.1424C17.5544 18.8179 18.2637 18.2525 18.7641 17.5196C19.2645 16.7868 19.5329 15.9204 19.5345 15.033ZM15.1108 17.9234C13.5162 17.9234 12.2205 16.6277 12.2205 15.033C12.2205 13.4384 13.5162 12.1427 15.1108 12.1427C16.7055 12.1427 18.0012 13.4384 18.0012 15.033C18.0012 16.6277 16.7055 17.9234 15.1108 17.9234Z" fill="black"/>
<path d="M12.3129 7.96541C12.3129 10.4034 10.3272 12.3891 7.88924 12.3891C5.45124 12.3891 3.46558 10.4034 3.46558 7.96541C3.46612 7.07778 3.73414 6.21093 4.23468 5.4779C4.73522 4.74486 5.44505 4.17969 6.27158 3.85607C6.27158 3.84841 6.27924 3.84841 6.27924 3.84841C7.55958 3.32707 8.91658 3.06641 10.3119 3.06641C12.1305 3.0665 13.9195 3.52706 15.5121 4.40514C17.1048 5.28322 18.4491 6.55023 19.4199 8.08807C19.6499 8.44841 19.5426 8.91607 19.1822 9.14607C19.0622 9.22683 18.9206 9.26957 18.7759 9.26874C18.5152 9.26874 18.2699 9.13841 18.1242 8.90841C17.3367 7.65204 16.2565 6.6052 14.9761 5.8575C13.6957 5.10979 12.2531 4.68349 10.7719 4.61507C11.2562 5.02847 11.6449 5.54221 11.911 6.12071C12.1771 6.69921 12.3142 7.32865 12.3129 7.96541ZM10.7796 7.96541C10.7796 6.37074 9.48391 5.07507 7.88924 5.07507C6.29458 5.07507 4.99891 6.37074 4.99891 7.96541C4.99891 9.56007 6.29458 10.8557 7.88924 10.8557C9.48391 10.8557 10.7796 9.56007 10.7796 7.96541Z" fill="black"/>
<path d="M0 3.83333C0 2.81667 0.403868 1.84165 1.12276 1.12276C1.84165 0.403868 2.81667 0 3.83333 0H19.1667C19.6701 0 20.1685 0.0991521 20.6336 0.291795C21.0987 0.484438 21.5213 0.766799 21.8772 1.12276C22.2332 1.47872 22.5156 1.9013 22.7082 2.36638C22.9008 2.83146 23 3.32993 23 3.83333V19.1667C23 20.1833 22.5961 21.1584 21.8772 21.8772C21.1584 22.5961 20.1833 23 19.1667 23H3.83333C3.32993 23 2.83146 22.9008 2.36638 22.7082C1.9013 22.5156 1.47872 22.2332 1.12276 21.8772C0.403868 21.1584 0 20.1833 0 19.1667V3.83333ZM3.83333 1.53333C3.22334 1.53333 2.63832 1.77565 2.20699 2.20699C1.77565 2.63832 1.53333 3.22334 1.53333 3.83333V19.1667C1.53333 19.7767 1.77565 20.3617 2.20699 20.793C2.63832 21.2243 3.22334 21.4667 3.83333 21.4667H19.1667C19.7767 21.4667 20.3617 21.2243 20.793 20.793C21.2243 20.3617 21.4667 19.7767 21.4667 19.1667V3.83333C21.4667 3.22334 21.2243 2.63832 20.793 2.20699C20.3617 1.77565 19.7767 1.53333 19.1667 1.53333H3.83333Z" fill="black"/>
</svg>
