<svg width="24" height="24" viewBox="0 0 24 24" fill="none" xmlns="http://www.w3.org/2000/svg">
<path d="M3 22H21" stroke="black" stroke-width="1.5" stroke-linecap="round" stroke-linejoin="round"/>
<path d="M3 11C3 10.057 3 9.586 3.293 9.293C3.586 9 4.057 9 5 9C5.943 9 6.414 9 6.707 9.293C7 9.586 7 10.057 7 11V17C7 17.943 7 18.414 6.707 18.707C6.414 19 5.943 19 5 19C4.057 19 3.586 19 3.293 18.707C3 18.414 3 17.943 3 17V11ZM10 7C10 6.057 10 5.586 10.293 5.293C10.586 5 11.057 5 12 5C12.943 5 13.414 5 13.707 5.293C14 5.586 14 6.057 14 7V17C14 17.943 14 18.414 13.707 18.707C13.414 19 12.943 19 12 19C11.057 19 10.586 19 10.293 18.707C10 18.414 10 17.943 10 17V7ZM17 4C17 3.057 17 2.586 17.293 2.293C17.586 2 18.057 2 19 2C19.943 2 20.414 2 20.707 2.293C21 2.586 21 3.057 21 4V17C21 17.943 21 18.414 20.707 18.707C20.414 19 19.943 19 19 19C18.057 19 17.586 19 17.293 18.707C17 18.414 17 17.943 17 17V4Z" stroke="black" stroke-width="1.5"/>
</svg>
