<svg width="17" height="15" viewBox="0 0 17 15" fill="none" xmlns="http://www.w3.org/2000/svg">
<path d="M0.75 0C0.551088 0 0.360322 0.0846617 0.21967 0.235361C0.0790175 0.386059 0 0.590451 0 0.803571C0 1.01669 0.0790175 1.22108 0.21967 1.37178C0.360322 1.52248 0.551088 1.60714 0.75 1.60714H15.25C15.4489 1.60714 15.6397 1.52248 15.7803 1.37178C15.921 1.22108 16 1.01669 16 0.803571C16 0.590451 15.921 0.386059 15.7803 0.235361C15.6397 0.0846617 15.4489 0 15.25 0H0.75ZM0.75 3.21429C0.551088 3.21429 0.360322 3.29895 0.21967 3.44965C0.0790175 3.60035 0 3.80474 0 4.01786C0 4.23098 0.0790175 4.43537 0.21967 4.58607C0.360322 4.73677 0.551088 4.82143 0.75 4.82143H10.206C10.9258 4.46803 11.7083 4.2853 12.5 4.28571C13.2917 4.2853 14.0742 4.46803 14.794 4.82143H15.25C15.4489 4.82143 15.6397 4.73677 15.7803 4.58607C15.921 4.43537 16 4.23098 16 4.01786C16 3.80474 15.921 3.60035 15.7803 3.44965C15.6397 3.29895 15.4489 3.21429 15.25 3.21429H0.75ZM0.75 6.42857H8.257C7.88527 6.91075 7.58754 7.45325 7.375 8.03571H0.75C0.551088 8.03571 0.360322 7.95105 0.21967 7.80035C0.0790175 7.64965 0 7.44526 0 7.23214C0 7.01902 0.0790175 6.81463 0.21967 6.66393C0.360322 6.51323 0.551088 6.42857 0.75 6.42857ZM0.75 9.64286H7.022C6.97756 10.1795 7.00077 10.72 7.091 11.25H0.75C0.551088 11.25 0.360322 11.1653 0.21967 11.0146C0.0790175 10.8639 0 10.6595 0 10.4464C0 10.2333 0.0790175 10.0289 0.21967 9.87822C0.360322 9.72752 0.551088 9.64286 0.75 9.64286ZM17 10.1786C17 11.4573 16.5259 12.6836 15.682 13.5878C14.8381 14.492 13.6935 15 12.5 15C11.3065 15 10.1619 14.492 9.31802 13.5878C8.47411 12.6836 8 11.4573 8 10.1786C8 8.89985 8.47411 7.6735 9.31802 6.76931C10.1619 5.86511 11.3065 5.35714 12.5 5.35714C13.6935 5.35714 14.8381 5.86511 15.682 6.76931C16.5259 7.6735 17 8.89985 17 10.1786ZM12.5 7.5C12.3674 7.5 12.2402 7.55644 12.1464 7.65691C12.0527 7.75737 12 7.89363 12 8.03571V10.1786C12 10.3207 12.0527 10.4569 12.1464 10.5574C12.2402 10.6578 12.3674 10.7143 12.5 10.7143C12.6326 10.7143 12.7598 10.6578 12.8536 10.5574C12.9473 10.4569 13 10.3207 13 10.1786V8.03571C13 7.89363 12.9473 7.75737 12.8536 7.65691C12.7598 7.55644 12.6326 7.5 12.5 7.5ZM12.5 12.9911C12.6658 12.9911 12.8247 12.9205 12.9419 12.7949C13.0592 12.6694 13.125 12.499 13.125 12.3214C13.125 12.1438 13.0592 11.9735 12.9419 11.8479C12.8247 11.7223 12.6658 11.6518 12.5 11.6518C12.3342 11.6518 12.1753 11.7223 12.0581 11.8479C11.9408 11.9735 11.875 12.1438 11.875 12.3214C11.875 12.499 11.9408 12.6694 12.0581 12.7949C12.1753 12.9205 12.3342 12.9911 12.5 12.9911Z" fill="#F24822"/>
</svg>
