<svg width="22" height="22" viewBox="0 0 22 22" fill="none" xmlns="http://www.w3.org/2000/svg">
<path d="M11.0989 3.33979C11.3464 3.1448 11.604 2.92043 11.8718 2.66667C14.4593 0.210753 17.9828 0.691398 19.6332 2.66667C23.6888 7.52043 19.1472 15.1333 16.5495 19.5376C16.2537 20.0387 15.6642 20.3548 15.0308 20.3548C14.0183 20.3548 13.2274 19.5806 13.1937 18.6774C13.1262 16.8065 12.6717 14.543 11.1248 14.4409C9.57792 14.543 9.07055 16.8065 9.00305 18.6774C8.9693 19.5806 8.17842 20.3548 7.16705 20.3548C6.53255 20.3548 5.94305 20.0387 5.6483 19.5376C1.9493 13.2667 0.948046 9.33226 1.00205 6.80645C3.2498 6.91398 4.3658 5.83871 4.3658 3.90323C6.62479 4.22581 7.74979 2.96667 7.74979 1C8.87479 1 9.52167 1.90323 10.326 2.66667C10.5923 2.91971 10.8499 3.14409 11.0989 3.33979ZM11.0989 3.33979C12.7774 4.66882 13.9373 4.76344 14.4998 4.22581" stroke="black" stroke-width="1.5" stroke-linecap="round" stroke-linejoin="round"/>
</svg>
