<svg width="25" height="23" viewBox="0 0 25 23" fill="none" xmlns="http://www.w3.org/2000/svg">
<path d="M8.08813 5.49513C8.63961 6.02754 9.74586 5.93384 11.397 4.61772M11.397 4.61772C11.1529 4.42463 10.8995 4.20244 10.637 3.95114C8.09365 1.51909 4.6304 1.99506 3.00797 3.95114C1.88737 5.30346 -0.980285 8.6683 6.03886 20.6582C6.33004 21.1544 6.90908 21.4674 7.53225 21.4674C8.5271 21.4674 9.30468 20.7008 9.33667 19.8063C9.40615 17.9088 9.78667 15.7206 11.397 15.7206C13.0073 15.7206 13.3889 17.9088 13.4573 19.8063C13.4893 20.7008 14.2668 21.4674 15.2617 21.4674C15.8849 21.4674 16.4639 21.1544 16.7551 20.6582C23.7753 8.66723 20.9066 5.30346 19.786 3.95114C18.1635 1.99506 14.7003 1.51909 12.1569 3.95114C11.8944 4.20173 11.6411 4.42392 11.397 4.61772Z" stroke="black" stroke-width="1.5" stroke-linecap="round" stroke-linejoin="round"/>
</svg>
