<svg width="26" height="25" viewBox="0 0 26 25" fill="none" xmlns="http://www.w3.org/2000/svg">
<path d="M18.2 6.94444V2.77778H7.8V6.94444H5.2V0H20.8V6.94444H18.2ZM20.8 13.1944C21.1683 13.1944 21.4773 13.0611 21.7269 12.7944C21.9765 12.5278 22.1009 12.1981 22.1 11.8056C22.0991 11.413 21.9743 11.0833 21.7256 10.8167C21.4769 10.55 21.1683 10.4167 20.8 10.4167C20.4317 10.4167 20.1231 10.55 19.8744 10.8167C19.6257 11.0833 19.5009 11.413 19.5 11.8056C19.4991 12.1981 19.6239 12.5282 19.8744 12.7958C20.1249 13.0634 20.4334 13.1963 20.8 13.1944ZM18.2 22.2222V16.6667H7.8V22.2222H18.2ZM20.8 25H5.2V19.4444H0V11.1111C0 9.93056 0.379167 8.9412 1.1375 8.14305C1.89583 7.34491 2.81667 6.94537 3.9 6.94444H22.1C23.205 6.94444 24.1315 7.34398 24.8794 8.14305C25.6273 8.94213 26.0009 9.93148 26 11.1111V19.4444H20.8V25ZM23.4 16.6667V11.1111C23.4 10.7176 23.2752 10.388 23.0256 10.1222C22.776 9.85648 22.4675 9.72315 22.1 9.72222H3.9C3.53167 9.72222 3.22313 9.85556 2.9744 10.1222C2.72567 10.3889 2.60087 10.7185 2.6 11.1111V16.6667H5.2V13.8889H20.8V16.6667H23.4Z" fill="black"/>
</svg>
