<svg width="23" height="23" viewBox="0 0 23 23" fill="none" xmlns="http://www.w3.org/2000/svg">
<path d="M5.66667 1H3.33333C2.71449 1 2.121 1.24583 1.68342 1.68342C1.24583 2.121 1 2.71449 1 3.33333V5.66667M17.3333 1H19.6667C20.2855 1 20.879 1.24583 21.3166 1.68342C21.7542 2.121 22 2.71449 22 3.33333V5.66667M16.1667 6.83333V9.16667M6.83333 6.83333V9.16667M8 16.1667C8 16.1667 9.16667 17.3333 11.5 17.3333C13.8333 17.3333 15 16.1667 15 16.1667M11.5 6.83333V12.6667H10.3333M5.66667 22H3.33333C2.71449 22 2.121 21.7542 1.68342 21.3166C1.24583 20.879 1 20.2855 1 19.6667V17.3333M17.3333 22H19.6667C20.2855 22 20.879 21.7542 21.3166 21.3166C21.7542 20.879 22 20.2855 22 19.6667V17.3333" stroke="black" stroke-width="1.5" stroke-linecap="round" stroke-linejoin="round"/>
</svg>
